<?xml version="1.0" encoding="utf-8"?>
<!-- Generator: Adobe Illustrator 24.3.2, SVG Export Plug-In . SVG Version: 6.00 Build 0)  -->
<svg version="1.1" baseProfile="tiny" id="Layer_1" xmlns="http://www.w3.org/2000/svg" xmlns:xlink="http://www.w3.org/1999/xlink"
	 x="0px" y="0px" viewBox="0 0 18.06 23.89" overflow="visible" xml:space="preserve">
<g>
	<g>
		<polygon fill="#FFCE31" points="8.36,11.16 11.41,12.37 13.63,12.45 15.6,19.42 11.95,18.53 14.03,23.89 7.7,15.85 12.41,17 		"/>
	</g>
	<g>
		<circle fill="#FFCE31" cx="9.03" cy="9.03" r="4.21"/>
		<path fill="#FFCE31" d="M10.72,4.12L9.03,0L7.34,4.12c0.55-0.1,1.11-0.16,1.69-0.16C9.61,3.96,10.17,4.02,10.72,4.12z"/>
		<path fill="#FFCE31" d="M4.12,7.34L0,9.03l4.12,1.69c-0.1-0.55-0.16-1.11-0.16-1.69C3.96,8.45,4.02,7.89,4.12,7.34z"/>
		<path fill="#FFCE31" d="M13.7,6.75l1.72-4.11l-4.11,1.72c0.46,0.32,0.9,0.68,1.3,1.08C13.02,5.86,13.38,6.3,13.7,6.75z"/>
		<path fill="#FFCE31" d="M4.36,11.31l-1.72,4.11l4.11-1.72c-0.46-0.32-0.9-0.68-1.3-1.08C5.04,12.2,4.68,11.76,4.36,11.31z"/>
		<path fill="#FFCE31" d="M6.75,4.36L2.64,2.64l1.72,4.11c0.32-0.46,0.68-0.9,1.08-1.3C5.86,5.04,6.3,4.68,6.75,4.36z"/>
		<path fill="#1C75BC" d="M8.43,14.78c-0.21,0-0.43-0.04-0.63-0.1c-0.82-0.28-1.38-1.06-1.38-1.94c0-0.59,0.25-1.15,0.69-1.54
			c0.11-0.1,0.24-0.19,0.37-0.26l-0.01,0l0.13-0.47c0.33-1.18,1.4-2.01,2.61-2.01c0.12,0,0.24,0.01,0.39,0.03
			c0.11,0.02,0.22,0.04,0.33,0.07l0.05-0.1C11.46,7.55,12.39,7,13.39,7c1.52,0,2.75,1.26,2.75,2.81c0,0.08-0.01,0.15-0.01,0.22
			l0,0.06c0.12,0.05,0.23,0.1,0.34,0.17c0.73,0.43,1.19,1.24,1.19,2.1c0,1.14-0.76,2.11-1.84,2.36c-0.18,0.04-0.36,0.06-0.53,0.06
			L8.43,14.78L8.43,14.78z"/>
		<path fill="#75D6FF" d="M13.39,6.59c-1.08,0-2.09,0.57-2.66,1.49c-0.02,0-0.04-0.01-0.07-0.01c-0.17-0.02-0.31-0.03-0.45-0.03
			c-1.38,0-2.61,0.95-2.99,2.3l-0.09,0.32c-0.1,0.06-0.19,0.14-0.28,0.22c-0.52,0.47-0.82,1.14-0.82,1.85c0,1.06,0.66,2,1.65,2.33
			c0.24,0.08,0.5,0.12,0.75,0.12h6.86c0.21,0,0.42-0.02,0.62-0.07c1.27-0.3,2.15-1.43,2.15-2.76c0-1.01-0.53-1.95-1.39-2.45
			c-0.04-0.02-0.08-0.05-0.13-0.07c0-0.01,0-0.01,0-0.02C16.54,8.03,15.13,6.59,13.39,6.59z M13.39,7.41c1.3,0,2.35,1.08,2.35,2.4
			c0,0.06,0,0.13-0.01,0.19c-0.54,0.04-1.04,0.26-1.43,0.61c0.29-0.17,0.62-0.27,0.98-0.27c0.13,0,0.26,0.01,0.39,0.04
			c0.21,0.04,0.41,0.12,0.6,0.23c0.59,0.35,0.99,1,0.99,1.74c0,0.96-0.65,1.76-1.53,1.96c-0.14,0.03-0.29,0.05-0.44,0.05H8.43h0
			c-0.18,0-0.34-0.03-0.5-0.08c-0.64-0.22-1.1-0.83-1.1-1.55c0-0.49,0.21-0.93,0.55-1.23c0.15-0.14,0.33-0.24,0.53-0.31
			c0.17-0.06,0.34-0.09,0.53-0.09c0.52,0,0.98,0.25,1.27,0.64h0.01c-0.34-0.64-0.98-1.09-1.72-1.16c0.28-0.99,1.17-1.71,2.22-1.71
			c0.11,0,0.22,0.01,0.33,0.03c0.21,0.03,0.42,0.09,0.61,0.18c0.71,0.32,1.23,1,1.35,1.82c0,0,0-0.01,0-0.01
			c0-0.93-0.47-1.74-1.17-2.22C11.73,7.91,12.5,7.41,13.39,7.41"/>
	</g>
</g>
</svg>
